<?xml version="1.0" encoding="UTF-8" standalone="no"?>
<!-- Created with Inkscape (http://www.inkscape.org/) -->

<svg
   xmlns:dc="http://purl.org/dc/elements/1.1/"
   xmlns:cc="http://creativecommons.org/ns#"
   xmlns:rdf="http://www.w3.org/1999/02/22-rdf-syntax-ns#"
   xmlns:svg="http://www.w3.org/2000/svg"
   xmlns="http://www.w3.org/2000/svg"
   xmlns:sodipodi="http://sodipodi.sourceforge.net/DTD/sodipodi-0.dtd"
   xmlns:inkscape="http://www.inkscape.org/namespaces/inkscape"
   width="1280"
   height="1280"
   viewBox="0 0 338.66666 338.66666"
   version="1.1"
   id="svg1179"
   inkscape:version="0.92.3 (2405546, 2018-03-11)"
   sodipodi:docname="background.svg">
  <defs
     id="defs1173" />
  <sodipodi:namedview
     id="base"
     pagecolor="#ffffff"
     bordercolor="#666666"
     borderopacity="1.0"
     inkscape:pageopacity="0.0"
     inkscape:pageshadow="2"
     inkscape:zoom="0.35"
     inkscape:cx="612.663"
     inkscape:cy="659.6062"
     inkscape:document-units="mm"
     inkscape:current-layer="layer1"
     showgrid="false"
     fit-margin-top="0"
     fit-margin-left="0"
     fit-margin-right="0"
     fit-margin-bottom="0"
     units="px"
     inkscape:window-width="1366"
     inkscape:window-height="713"
     inkscape:window-x="0"
     inkscape:window-y="0"
     inkscape:window-maximized="1" />
  <metadata
     id="metadata1176">
    <rdf:RDF>
      <cc:Work
         rdf:about="">
        <dc:format>image/svg+xml</dc:format>
        <dc:type
           rdf:resource="http://purl.org/dc/dcmitype/StillImage" />
        <dc:title></dc:title>
      </cc:Work>
    </rdf:RDF>
  </metadata>
  <g
     inkscape:label="Layer 1"
     inkscape:groupmode="layer"
     id="layer1"
     transform="translate(353.816,16.7202)">
    <g
       id="g1947"
       inkscape:export-filename="/home/panda/GDevelop projects/Squibbles/assets/backgrounds/background.png"
       inkscape:export-xdpi="96"
       inkscape:export-ydpi="96">
      <path
         d="M -353.816,-16.720204 V 321.94647 H -15.149334 V -16.720204 Z"
         id="path1752"
         inkscape:connector-curvature="0"
         style="fill:#c3f2f5;fill-opacity:1;stroke:none;stroke-width:0.6047619" />
      <path
         sodipodi:nodetypes="cccccccccccccccccccccccsccccccccc"
         d="m -70.273422,112.75172 c -0.685397,-0.76603 -1.411111,-1.50182 -2.177143,-2.20738 -8.224761,-7.59985 -17.931191,-11.188096 -29.119285,-10.764766 -11.16793,0.443486 -20.55182,4.767536 -28.15167,12.972146 -0.98777,1.08857 -1.92515,2.18723 -2.81214,3.29596 -0.44349,-0.50397 -0.92731,-0.99786 -1.45143,-1.48167 -3.02381,-2.84238 -6.62214,-4.18294 -10.795,-4.02167 -4.17285,0.14111 -7.6704,1.76389 -10.49261,4.86834 -0.80635,0.78619 -1.47159,1.64293 -1.99572,2.57023 -5.18079,-2.80206 -10.92603,-4.07206 -17.23571,-3.81 -6.6927,0.24191 -12.60928,2.14691 -17.74976,5.715 -5.90651,-4.13254 -12.66976,-6.04762 -20.28977,-5.74523 -8.50698,0.34269 -15.7742,3.35642 -21.80166,9.04119 l -0.0302,-0.0302 c -6.83381,-6.26937 -14.91746,-9.2327 -24.25095,-8.89 -3.00365,0.12095 -5.86619,0.5846 -8.58762,1.39095 -1.67318,-5.52349 -4.79778,-10.40192 -9.37381,-14.63525 -1.59254,-1.471586 -3.25563,-2.761736 -4.98928,-3.870466 -5.6646,-3.64873 -12.06501,-5.321903 -19.2012,-5.01953 -9.33349,0.36286 -17.16515,3.94104 -23.495,10.734526 -0.0403,0.0403 -0.0806,0.0907 -0.12095,0.15119 l -1.02809,-1.08857 c -0.64509,-0.64508 -1.30024,-1.24984 -1.96548,-1.81429 -6.02747,-5.200946 -13.1435,-7.801426 -21.34809,-7.801426 -1.73365,0 -3.42698,0.12095 -5.08001,0.36286 V 321.94647 h 338.636427 l 0.03024,-229.423996 c -7.196667,1.24984 -13.375319,4.66674 -18.535953,10.250706 -2.257778,2.43921 -4.092223,5.04976 -5.503334,7.83168 -4.515555,-1.97555 -9.454444,-2.86255 -14.816666,-2.66095 -6.067778,0.2419 -11.490476,1.84452 -16.268095,4.80785 z"
         id="path1756"
         inkscape:connector-curvature="0"
         style="fill:#ddf8f9;fill-opacity:1;stroke:none;stroke-width:0.6047619" />
      <path
         d="m -92.377448,137.97086 c -4.576023,4.23334 -7.700642,9.11175 -9.373802,14.63524 -2.72144,-0.80635 -5.58398,-1.27 -8.58761,-1.39095 -9.33351,-0.3427 -17.41716,2.62064 -24.25096,8.89 l -0.0302,0.0302 c -6.02746,-5.68476 -13.29469,-8.69849 -21.80167,-9.04119 -7.62,-0.30238 -14.38325,1.6127 -20.28976,5.74524 -5.14048,-3.5681 -11.05707,-5.4731 -17.74977,-5.715 -6.30968,-0.26207 -12.05491,1.00793 -17.23571,3.81 -0.52413,-0.92731 -1.18937,-1.78405 -1.99571,-2.57024 -2.82223,-3.10445 -6.31977,-4.72722 -10.49262,-4.86833 -4.17286,-0.16126 -7.77119,1.17928 -10.795,4.02166 -0.52413,0.48381 -1.00794,0.9777 -1.45143,1.48167 -0.88699,-1.10873 -1.82437,-2.20738 -2.81214,-3.29595 -7.59985,-8.20461 -16.98374,-12.52866 -28.15167,-12.97215 -11.1881,-0.42333 -20.89453,3.16492 -29.11929,10.76477 -0.76603,0.70555 -1.49174,1.44134 -2.17714,2.20738 -4.77762,-2.96334 -10.20032,-4.56596 -16.2681,-4.80786 -5.36222,-0.20158 -10.30111,0.6854 -14.81667,2.66095 -1.41111,-2.78191 -3.24555,-5.39246 -5.50333,-7.83167 -5.16063,-5.58397 -11.33928,-9.00087 -18.53595,-10.25071 l 0.0302,192.47255 H -15.149353 V 129.62515 c -1.653005,-0.2419 -3.346354,-0.36286 -5.08,-0.36286 -8.204595,0 -15.320641,2.60048 -21.348092,7.80143 -0.665235,0.56444 -1.320389,1.16921 -1.965463,1.81429 -0.342698,0.36285 -0.685395,0.72571 -1.028092,1.08857 -0.04046,-0.0605 -0.08069,-0.11088 -0.120914,-0.1512 -6.329852,-6.79349 -14.161509,-10.37167 -23.494996,-10.73453 -7.136206,-0.30238 -13.536595,1.3708 -19.201189,5.01953 -1.733646,1.10873 -3.396755,2.39889 -4.989303,3.87047 z"
         id="path1760"
         inkscape:connector-curvature="0"
         style="fill:#eefbfc;fill-opacity:1;stroke:none;stroke-width:0.6047619"
         sodipodi:nodetypes="ccccccccccccccccccccccccscccccccc" />
      <path
         d="m -91.349333,210.45862 q -23.101907,3.35642 -47.080717,3.74952 -23.1019,0.27214 -45.68976,-3.47738 -23.04142,-3.77976 -44.93381,-9.70643 -7.10595,-1.905 -14.3631,-3.47738 -16.23785,-3.50762 -33.14094,-5.26143 -24.34167,-2.38881 -47.98786,1.05833 -14.605,2.17715 -29.27048,4.2031 V 321.94647 H -15.149333 V 198.00052 q -14.99809,2.08643 -29.81477,4.8381 -23.04142,4.23333 -46.38523,7.62 z"
         id="path1764"
         inkscape:connector-curvature="0"
         style="fill:#bbecb8;fill-opacity:1;stroke:none;stroke-width:0.6047619" />
    </g>
  </g>
</svg>
